<!DOCTYPE svg PUBLIC "-//W3C//DTD SVG 20010904//EN" "http://www.w3.org/TR/2001/REC-SVG-20010904/DTD/svg10.dtd">
<svg version="1.0" xmlns="http://www.w3.org/2000/svg" viewBox="0 0 12000 6660" preserveAspectRatio="xMidYMid meet">
<g id="layer101" fill="#713bee" stroke="none">
 <path d="M0 3330 l0 -3330 6000 0 6000 0 0 3330 0 3330 -6000 0 -6000 0 0 -3330z"/>
 </g>
<g id="layer102" fill="" stroke="none">
 <path d="M0 3330 l0 -3330 6000 0 6000 0 0 3330 0 3330 -6000 0 -6000 0 0 -3330z m2965 3015 c88 -22 248 -105 345 -179 47 -35 129 -109 181 -163 153 -160 234 -274 474 -668 110 -182 210 -326 280 -403 26 -29 45 -55 42 -59 -3 -3 -88 6 -189 20 -463 66 -1046 125 -1493 152 -505 30 -445 14 -445 118 0 125 18 361 35 482 40 270 116 457 227 561 71 66 158 116 239 138 72 19 230 20 304 1z m7116 -1 c155 -46 279 -153 352 -304 204 -423 193 -1424 -29 -2585 -20 -104 -40 -194 -45 -199 -5 -5 -30 0 -61 14 -730 312 -1776 664 -2703 910 -66 18 -158 43 -205 56 -123 34 -660 165 -900 219 -113 26 -207 48 -209 51 -2 2 144 4 325 4 1028 0 1439 62 1708 254 161 115 290 286 580 766 124 206 231 346 375 491 170 170 341 281 501 323 76 20 242 20 311 0z m-7241 -1504 c1905 -115 4210 -585 6130 -1250 1254 -435 2240 -953 2555 -1344 258 -320 167 -559 -275 -714 -266 -93 -626 -143 -1170 -162 -157 -6 -295 -15 -306 -20 -14 -5 -50 -63 -101 -162 -118 -227 -179 -323 -236 -373 -207 -181 -748 -343 -1212 -362 -206 -8 -227 -2 -475 125 -365 188 -455 230 -608 282 -158 53 -327 91 -501 111 -160 18 -545 7 -696 -20 -241 -43 -456 -116 -674 -229 -402 -207 -494 -251 -541 -261 -71 -15 -232 -14 -385 4 -475 55 -927 216 -1077 384 -91 102 -302 518 -441 871 -125 316 -252 711 -337 1046 -13 51 -15 53 -120 94 -609 239 -1214 541 -1540 769 -286 199 -432 347 -512 517 -28 60 -33 80 -33 149 0 70 4 87 30 134 133 242 620 383 1470 425 131 7 879 -3 1055 -14z"/>
 <path d="M1995 4426 c-212 -64 -332 -124 -422 -212 -148 -145 -157 -310 -29 -502 55 -84 240 -265 366 -359 182 -136 458 -300 486 -289 19 7 22 -11 -40 289 -56 273 -107 589 -140 867 -14 113 -28 213 -32 223 -9 25 -62 21 -189 -17z"/>
 <path d="M8312 2550 c-42 -17 -52 -65 -52 -239 0 -88 4 -171 10 -185 14 -37 203 -160 244 -160 36 1 191 97 225 140 21 27 22 35 19 217 -3 189 -3 189 -31 213 -28 24 -32 24 -210 23 -100 0 -192 -4 -205 -9z"/>
 <path d="M4066 2484 c-133 -32 -269 -129 -341 -243 -69 -111 -98 -265 -71 -391 67 -317 390 -511 693 -415 234 74 384 274 387 515 1 104 -14 162 -67 263 -39 74 -164 195 -240 230 -115 55 -244 69 -361 41z"/>
 <path d="M10160 2438 c-11 -24 -20 -49 -20 -55 0 -18 -112 -360 -160 -488 -22 -60 -38 -115 -36 -122 9 -21 36 -15 126 29 64 32 104 61 161 118 71 69 79 81 100 150 20 66 21 82 12 137 -19 106 -110 273 -149 273 -8 0 -24 -19 -34 -42z"/>
 <path d="M7802 2040 c-41 -17 -52 -65 -52 -235 0 -174 10 -218 55 -235 15 -6 106 -10 204 -10 167 0 180 1 205 21 43 34 139 189 140 224 0 40 -117 223 -151 236 -31 12 -371 11 -401 -1z"/>
 <path d="M8827 2043 c-28 -7 -151 -202 -151 -238 0 -34 99 -191 141 -225 24 -18 39 -20 210 -20 185 0 185 0 214 29 29 29 29 29 29 216 0 187 0 187 -29 216 -29 29 -29 29 -213 28 -101 -1 -191 -3 -201 -6z"/>
 <path d="M8466 1630 c-82 -45 -181 -116 -193 -140 -10 -18 -13 -73 -11 -203 3 -179 3 -179 36 -208 32 -29 32 -29 218 -29 186 0 186 0 215 29 29 29 29 29 29 220 0 222 7 206 -126 289 -102 64 -119 68 -168 42z"/>
 </g>

</svg>